PathFileType	4	(X/Y/Z)	/Users/itak/Documents/Research/Walk-IL/dataset/trc/00147_00007.trc
DataRate	CameraRate	NumFrames	NumMarkers	Units	OrigDataRate	OrigDataStartFrame	OrigNumFrames
100.000000	100.000000	4	53	mm	100.000000	196	523
Frame#	Time	RPSI			LPSI			L3			STRN			T10			C7			CLAV			RBAK			LBAK			LSHO			LUPA			LAEL			LAOL			LWTS			LWPS			LFRA			LIFD			LHPS			LHTS			RSHO			RUPA			RAEL			RAOL			RWTS			RWPS			RFRA			RIFD			RHTS			RHPS			RBHD			LFHD			RFHD			LBHD			LHIP			RHIP			RASI			LASI			LKNE			LTHI			LANK			LTIP			LTOE			LMT1			LMT5			LHEE			RKNE			RTHI			RANK			RTIP			RTOE			RMT1			RMT5			RHEE			
		X1	Y1	Z1	X2	Y2	Z2	X3	Y3	Z3	X4	Y4	Z4	X5	Y5	Z5	X6	Y6	Z6	X7	Y7	Z7	X8	Y8	Z8	X9	Y9	Z9	X10	Y10	Z10	X11	Y11	Z11	X12	Y12	Z12	X13	Y13	Z13	X14	Y14	Z14	X15	Y15	Z15	X16	Y16	Z16	X17	Y17	Z17	X18	Y18	Z18	X19	Y19	Z19	X20	Y20	Z20	X21	Y21	Z21	X22	Y22	Z22	X23	Y23	Z23	X24	Y24	Z24	X25	Y25	Z25	X26	Y26	Z26	X27	Y27	Z27	X28	Y28	Z28	X29	Y29	Z29	X30	Y30	Z30	X31	Y31	Z31	X32	Y32	Z32	X33	Y33	Z33	X34	Y34	Z34	X35	Y35	Z35	X36	Y36	Z36	X37	Y37	Z37	X38	Y38	Z38	X39	Y39	Z39	X40	Y40	Z40	X41	Y41	Z41	X42	Y42	Z42	X43	Y43	Z43	X44	Y44	Z44	X45	Y45	Z45	X46	Y46	Z46	X47	Y47	Z47	X48	Y48	Z48	X49	Y49	Z49	X50	Y50	Z50	X51	Y51	Z51	X52	Y52	Z52	X53	Y53	Z53	

197	1.96	-382.7685241699219	1120.626342773438	1232.618041992188	-393.4665222167969	1129.202392578125	1097.979736328125	-395.6765747070312	1166.764892578125	1162.621704101562	-163.2564086914062	1352.564575195312	1138.424194335938	-416.7772216796875	1322.865844726562	1163.266967773438	-357.55029296875	1610.49951171875	1137.199829101562	-186.8476104736328	1490.224243164062	1133.900268554688	-417.3219604492188	1433.452514648438	1234.636840820312	-374.7057189941406	1588.479614257812	1036.900512695312	-294.3098449707031	1565.7177734375	962.160888671875	-318.7229614257812	1433.008666992188	897.0341796875	-289.9269104003906	1215.9892578125	868.16796875	-332.9330749511719	1194.390991210938	942.04833984375	-150.71533203125	974.749755859375	863.0436401367188	-231.7572479248047	937.199462890625	866.14892578125	-262.814453125	1102.6357421875	854.7762451171875	-102.7377853393555	786.5659790039062	866.3873901367188	-194.3617858886719	867.17578125	851.7091674804688	-128.8846588134766	889.6263427734375	843.5554809570312	-288.0687561035156	1591.548095703125	1313.43701171875	-305.9103698730469	1522.742431640625	1381.327270507812	-344.4175415039062	1233.369384765625	1413.630859375	-354.1925354003906	1229.294067382812	1318.477172851562	-221.1384429931641	977.8434448242188	1409.62646484375	-296.5011291503906	969.2755737304688	1441.4560546875	-326.7586669921875	1159.273803710938	1431.925659179688	-208.9993286132812	782.6047973632812	1397.983154296875	-199.0958557128906	869.385009765625	1419.301025390625	-266.080078125	866.912109375	1447.454711914062	-279.9432067871094	1775.974609375	1219.18359375	-205.9785461425781	1838.228881835938	1020.213317871094	-146.4149322509766	1856.919799804688	1134.826782226562	-349.4246826171875	1759.242919921875	1103.881591796875	-315.9034118652344	1041.340576171875	974.7908325195312	-237.2847747802734	1020.850769042969	1329.21533203125	-167.5842437744141	1096.404296875	1269.975830078125	-202.9730682373047	1099.769165039062	1007.553833007812	-270.9520874023438	534.8417358398438	1042.48046875	-299.8421020507812	678.517333984375	1005.155395507812	-349.4607238769531	36.97222518920898	1118.170776367188	-359.7289733886719	284.7571105957031	1057.030395507812	-112.6327667236328	43.41534805297852	1139.791015625	-187.2996368408203	50.49630355834961	1185.582641601562	-229.5287017822266	40.19340133666992	1074.845092773438	-408.0626831054688	42.30742263793945	1188.867431640625	-92.97879028320312	550.8163452148438	1277.751342773438	-159.2834930419922	823.2763061523438	1313.168334960938	-387.4862976074219	116.5207443237305	1372.989135742188	-156.7834014892578	431.010009765625	1312.646362304688	-188.0878448486328	68.79826354980469	1287.569946289062	-249.6529235839844	62.97666549682617	1249.245727539062	-265.0895690917969	68.12791442871094	1370.882934570312	-447.8617858886719	141.3507843017578	1334.391479492188	
198	1.97	-374.8345642089844	1120.342651367188	1231.748901367188	-386.7384948730469	1128.697875976562	1097.320434570312	-388.6515808105469	1166.319946289062	1161.741088867188	-156.5946502685547	1352.419799804688	1135.540771484375	-410.2119750976562	1322.519775390625	1161.884033203125	-351.1524047851562	1610.199340820312	1135.722534179688	-180.1997222900391	1490.090454101562	1131.433349609375	-410.3169860839844	1432.979736328125	1232.970947265625	-368.4482727050781	1588.258056640625	1035.135620117188	-288.2539672851562	1565.73779296875	960.2534790039062	-311.7948608398438	1433.075073242188	894.9371337890625	-280.0955505371094	1216.51513671875	865.3316650390625	-322.5211486816406	1193.943359375	939.208984375	-136.3712463378906	977.9898681640625	858.7830200195312	-216.7389221191406	938.80810546875	862.0540771484375	-251.0390625	1103.666381835938	851.4419555664062	-84.61812591552734	790.8029174804688	861.2732543945312	-177.9262542724609	869.5523071289062	847.2653198242188	-112.9260940551758	893.4053344726562	838.9088134765625	-280.8445434570312	1590.985717773438	1311.474365234375	-298.5397338867188	1522.122436523438	1379.311645507812	-337.21728515625	1232.83056640625	1411.689575195312	-347.327392578125	1228.802856445312	1316.557861328125	-214.3199310302734	977.1233520507812	1406.879638671875	-289.3599243164062	968.68017578125	1439.458251953125	-319.5742492675781	1158.706420898438	1429.865234375	-202.7008209228516	781.8067016601562	1395.171997070312	-192.4229278564453	868.62744140625	1416.426147460938	-259.0732421875	866.1517944335938	1445.21435546875	-272.8311767578125	1775.51318359375	1217.504760742188	-199.586669921875	1838.227783203125	1018.4130859375	-139.6497955322266	1856.701171875	1132.87060546875	-342.6434020996094	1758.974487304688	1102.39697265625	-310.6661682128906	1040.884521484375	973.4276123046875	-228.1178283691406	1021.116638183594	1327.04541015625	-159.2905426025391	1096.626220703125	1266.847290039062	-197.1378631591797	1099.391967773438	1004.674865722656	-268.1247253417969	534.3841552734375	1041.580322265625	-296.2649230957031	678.2369995117188	1004.313415527344	-349.4295349121094	37.12919998168945	1118.345092773438	-358.5181579589844	284.8970031738281	1057.026733398438	-112.4697189331055	43.29829406738281	1139.701293945312	-187.2575836181641	50.46451950073242	1185.470703125	-229.5241851806641	40.15101623535156	1074.736572265625	-407.8712463378906	42.45145797729492	1189.237670898438	-77.95579528808594	553.6671752929688	1272.044311523438	-147.6243591308594	824.918212890625	1310.262939453125	-357.0729370117188	109.7776489257812	1367.633422851562	-138.1126556396484	432.0357055664062	1307.11083984375	-156.1744232177734	69.23403930664062	1280.80419921875	-217.9142608642578	61.65630722045898	1242.9462890625	-232.8984527587891	66.35790252685547	1364.806640625	-418.7322082519531	132.1658172607422	1329.376098632812	
199	1.98	-366.8714904785156	1120.040405273438	1230.893188476562	-379.9748840332031	1128.223999023438	1096.664306640625	-381.5207824707031	1165.836059570312	1160.888549804688	-149.9140930175781	1352.195556640625	1132.687866210938	-403.5365295410156	1322.12451171875	1160.570190429688	-344.6877746582031	1609.839965820312	1134.266357421875	-173.5073547363281	1489.878662109375	1128.974365234375	-403.2336730957031	1432.452514648438	1231.351684570312	-362.162353515625	1587.980712890625	1033.42578125	-282.1982116699219	1565.6669921875	958.3754272460938	-304.9444274902344	1433.062622070312	892.8873291015625	-270.4107055664062	1216.992431640625	862.548828125	-312.3180236816406	1193.467529296875	936.3818359375	-122.2011566162109	981.3020629882812	854.6719360351562	-201.8545684814453	940.4860229492188	857.9827880859375	-239.4267578125	1104.697387695312	848.1665649414062	-66.67820739746094	795.2069702148438	856.2947387695312	-161.6257781982422	872.082275390625	842.8905639648438	-97.12139129638672	897.3024291992188	834.410888671875	-273.5384216308594	1590.371337890625	1309.538452148438	-291.0771789550781	1521.439697265625	1377.31591796875	-329.9506225585938	1232.217163085938	1409.678955078125	-340.3083190917969	1228.257080078125	1314.562744140625	-207.4755859375	976.3197021484375	1404.183715820312	-282.2714538574219	968.0137939453125	1437.357055664062	-312.35400390625	1158.063842773438	1427.745971679688	-196.4191284179688	780.9180297851562	1392.52001953125	-185.7581176757812	867.780029296875	1413.665649414062	-252.1293792724609	865.3310546875	1442.983276367188	-265.6817016601562	1775.002075195312	1215.80908203125	-193.1505584716797	1838.151000976562	1016.596130371094	-132.8378448486328	1856.417114257812	1130.892333984375	-335.8232116699219	1758.652709960938	1100.930908203125	-305.3591003417969	1040.4072265625	972.0897216796875	-218.9737701416016	1021.322570800781	1324.896728515625	-150.9961242675781	1096.75	1263.771240234375	-191.2771148681641	1098.976928710938	1001.875122070312	-265.211181640625	533.9281616210938	1040.699584960938	-292.6321716308594	677.94775390625	1003.472595214844	-349.3952026367188	37.29884719848633	1118.51904296875	-357.2373657226562	285.0520935058594	1057.013671875	-112.2725372314453	43.17959976196289	1139.645141601562	-187.1807403564453	50.43527221679688	1185.398315429688	-229.5199737548828	40.10324478149414	1074.629150390625	-407.6892700195312	42.62534332275391	1189.579223632812	-63.41435623168945	556.4338989257812	1266.380493164062	-136.1906890869141	826.4639892578125	1307.37451171875	-326.323974609375	103.0406723022461	1361.709594726562	-119.7334594726562	432.9706726074219	1301.500122070312	-124.1991119384766	69.90128326416016	1273.434326171875	-186.0498809814453	60.57859039306641	1236.046875	-200.5474243164062	64.693603515625	1358.09912109375	-389.1377563476562	122.9946136474609	1323.786987304688	
200	1.99	-358.8796997070312	1119.718872070312	1230.037475585938	-373.1633605957031	1127.769409179688	1095.998657226562	-374.2795104980469	1165.293823242188	1160.054443359375	-143.2041168212891	1351.90185546875	1129.875366210938	-396.733154296875	1321.68212890625	1159.332153320312	-338.1239013671875	1609.421997070312	1132.806274414062	-166.7674407958984	1489.596923828125	1126.529174804688	-396.0592651367188	1431.8779296875	1229.783569335938	-355.8371887207031	1587.64892578125	1031.767700195312	-276.1263732910156	1565.511108398438	956.5286254882812	-298.1647644042969	1432.976684570312	890.8816528320312	-260.88623046875	1217.419067382812	859.8267211914062	-302.3254089355469	1192.964721679688	933.5811767578125	-108.2438735961914	984.67626953125	850.706298828125	-187.1305084228516	942.2276611328125	853.9630737304688	-227.9996185302734	1105.724853515625	844.9557495117188	-48.95783996582031	799.76806640625	851.4346923828125	-145.4941711425781	874.74169921875	838.5856323242188	-81.51283264160156	901.3092041015625	830.0523071289062	-266.1481018066406	1589.71826171875	1307.6279296875	-283.5181274414062	1520.710571289062	1375.341796875	-322.6077575683594	1231.545532226562	1407.6064453125	-333.1390075683594	1227.6767578125	1312.499267578125	-200.5973510742188	975.4436645507812	1401.5400390625	-275.2421264648438	967.2894287109375	1435.1201171875	-305.0882568359375	1157.3623046875	1425.573364257812	-190.1276397705078	779.9551391601562	1389.989379882812	-179.0782165527344	866.8613891601562	1411.008422851562	-245.2441711425781	864.4669799804688	1440.736572265625	-258.4939270019531	1774.448608398438	1214.095458984375	-186.6624603271484	1837.998657226562	1014.760131835938	-125.9671096801758	1856.075317382812	1128.887817382812	-328.9683837890625	1758.28662109375	1099.479736328125	-299.9341735839844	1039.907836914062	970.7710571289062	-209.8685455322266	1021.462280273438	1322.7705078125	-142.7070770263672	1096.780883789062	1260.756591796875	-185.3723449707031	1098.525024414062	999.1590576171875	-262.2141723632812	533.47021484375	1039.83837890625	-288.9225463867188	677.649169921875	1002.631896972656	-349.3583984375	37.47548294067383	1118.688232421875	-355.887451171875	285.2226867675781	1056.983032226562	-112.0443267822266	43.06101226806641	1139.615600585938	-187.0703277587891	50.41275024414062	1185.367797851562	-229.5172576904297	40.04851531982422	1074.524047851562	-407.5202941894531	42.84391784667969	1189.875	-49.37331390380859	559.0842895507812	1260.794799804688	-125.0252456665039	827.877197265625	1304.496704101562	-295.2992858886719	96.38211822509766	1355.208984375	-101.6593322753906	433.8029174804688	1295.827514648438	-92.24994659423828	70.87163543701172	1265.45263671875	-154.17041015625	59.80209732055664	1228.538940429688	-168.1166687011719	63.18817901611328	1350.755737304688	-359.1270751953125	113.9383163452148	1317.654174804688	
